<?xml version="1.0" encoding="utf-8"?>
<!-- Generator: Adobe Illustrator 19.0.0, SVG Export Plug-In . SVG Version: 6.00 Build 0)  -->
<svg version="1.1" id="Layer_1" xmlns="http://www.w3.org/2000/svg" xmlns:xlink="http://www.w3.org/1999/xlink" x="0px" y="0px"
	 viewBox="476.4 15.1 1030.3 269" style="enable-background:new 476.4 15.1 1030.3 269;" xml:space="preserve">
<style type="text/css">
	.st0{fill:#FFFFFF;}
</style>
<path id="XMLID_545_" class="st0" d="M690.7,98.6c2.2-10.6,1.9-21.9-1.5-33c-10.8-35.2-48-55.1-83.3-44.3
	c-27.2,8.3-45.2,32.4-47.1,59.2c-12.5-5.6-26.9-6.8-40.9-2.5c-30.9,9.4-48.4,42.2-38.9,73.1s42.2,48.4,73.1,38.9
	c22.1-6.7,37.3-25.4,40.7-46.7c15.3,8.6,33.9,11.1,52,5.6c0.5-0.2,1-0.3,1.5-0.5c0.2,4.1,0.8,8.2,2.1,12.2
	c7.8,25.4,34.6,39.7,60.1,32s39.7-34.6,32-60.1C733.8,110.5,712.7,96.8,690.7,98.6z"/>
<path id="XMLID_541_" class="st0" d="M1454.9,186.7c2.2-10.6,1.9-21.9-1.5-33c-10.8-35.2-48-55.1-83.3-44.3
	c-27.2,8.3-45.2,32.4-47.1,59.2c-12.5-5.6-26.9-6.8-40.9-2.5c-30.9,9.4-48.4,42.2-38.9,73.1c9.4,30.9,42.2,48.4,73.1,38.9
	c22.1-6.7,37.3-25.4,40.7-46.7c15.3,8.6,33.9,11.1,52,5.6c0.5-0.2,1-0.3,1.5-0.5c0.2,4.1,0.8,8.2,2.1,12.2
	c7.8,25.4,34.6,39.7,60.1,32c25.4-7.8,39.7-34.6,32-60.1C1498,198.6,1477,185,1454.9,186.7z"/>
<path id="XMLID_262_" class="st0" d="M1036.5,152.3c-7.1,0-13.9,1.9-19.7,5.1c-1.2-5.2-3.2-10.1-5.7-14.6
	c11.6-2.5,20.3-12.8,20.3-25.1c0-14.2-11.5-25.7-25.7-25.7c-13.6,0-24.8,10.6-25.6,24c-6.4-2.4-13.4-3.7-20.7-3.7
	c-32.6,0-59,26.5-59,59.1s26.4,59.1,59,59.1c16.8,0,31.9-7,42.6-18.2c7,11.6,19.8,19.4,34.4,19.4c22.1,0,40-17.7,40-39.6
	C1076.5,170,1058.6,152.3,1036.5,152.3z"/>
</svg>
