<?xml version="1.0" encoding="utf-8"?>
<!-- Generator: Adobe Illustrator 19.0.0, SVG Export Plug-In . SVG Version: 6.00 Build 0)  -->
<svg version="1.1" id="Layer_1" xmlns="http://www.w3.org/2000/svg" xmlns:xlink="http://www.w3.org/1999/xlink" x="0px" y="0px"
	 viewBox="-205 297 200 200" style="enable-background:new -205 297 200 200;" xml:space="preserve">
<style type="text/css">
	.st0{fill:#E9504B;}
	.st1{fill:#FFFFFF;}
</style>
<g id="XMLID_17_">
	<path id="XMLID_19_" class="st0" d="M-109.2,298.6c2.3-2.2,6.1-2.2,8.3,0l17,16.3c2.3,2.2,6.8,3.6,9.9,3.2l23.3-3.3
		c3.2-0.4,6.3,1.7,6.8,4.9l4.1,23.3c0.6,3.2,3.3,7,6.1,8.4l20.8,11.1c2.8,1.5,3.9,5.1,2.6,8l-10.2,21.2c-1.5,2.9-1.5,7.6,0,10.5
		l10.3,21.2c1.5,2.9,0.3,6.4-2.6,8l-20.8,11.1c-2.8,1.5-5.5,5.2-6.1,8.4l-4.1,23.3c-0.6,3.2-3.6,5.4-6.8,4.9l-23.3-3.3
		c-3.2-0.4-7.7,1-9.9,3.2l-17,16.3c-2.3,2.2-6.1,2.2-8.3,0L-126,479c-2.3-2.2-6.8-3.6-9.9-3.2l-23.3,3.3c-3.2,0.4-6.3-1.7-6.8-4.9
		l-4.1-23.3c-0.6-3.2-3.3-7-6.1-8.4l-21.1-11.1c-2.8-1.5-3.9-5.1-2.6-8l10.5-21.1c1.5-2.9,1.5-7.6,0-10.5l-10.3-21.2
		c-1.5-2.9-0.3-6.4,2.6-8l20.8-11.1c2.8-1.5,5.5-5.2,6.1-8.4l4.1-23.3c0.6-3.2,3.6-5.4,6.8-4.9l23.3,3.3c3.2,0.4,7.7-1,9.9-3.2
		L-109.2,298.6z"/>
</g>
<g id="XMLID_190_">
	<path id="XMLID_192_" class="st1" d="M-154.3,399.6l24.3,10.6v15.1l-39-19.5v-12.7l39-19.5v15.1L-154.3,399.6z"/>
	<path id="XMLID_194_" class="st1" d="M-112.3,439.3h-11.1l23.4-84.7h11.1L-112.3,439.3z"/>
	<path id="XMLID_196_" class="st1" d="M-55.8,399.4l-24.7-10.7v-15.1l39.5,19.5v12.8l-39.5,19.5v-15L-55.8,399.4z"/>
</g>
</svg>
