<?xml version="1.0" encoding="utf-8"?>
<!-- Generator: Adobe Illustrator 19.0.0, SVG Export Plug-In . SVG Version: 6.00 Build 0)  -->
<svg version="1.1" id="Layer_1" xmlns="http://www.w3.org/2000/svg" xmlns:xlink="http://www.w3.org/1999/xlink" x="0px" y="0px"
	 viewBox="0 0 134.7 141.2" style="enable-background:new 0 0 134.7 141.2;" xml:space="preserve">
<style type="text/css">
	.st0{opacity:0.2;}
	.st1{fill:#1D1D1B;}
	.st2{fill:#E9504B;}
	.st3{opacity:0.1;fill:#1D1D1B;}
	.st4{fill:#DFC18F;}
	.st5{fill:none;stroke:#4B4949;stroke-width:2;stroke-miterlimit:10;}
	.st6{fill:#683D17;}
	.st7{opacity:0.2;fill:#1D1D1B;}
</style>
<g id="XMLID_163_">
	<g id="XMLID_20_" class="st0">
		<path id="XMLID_22_" class="st1" d="M66,4.8c1.6-1.5,4.2-1.5,5.7,0L83.4,16c1.6,1.5,4.7,2.5,6.8,2.2l16-2.3
			c2.2-0.3,4.3,1.2,4.7,3.4l2.8,16c0.4,2.2,2.3,4.8,4.2,5.8l14.3,7.6c1.9,1,2.7,3.5,1.8,5.5L127,68.8c-1,2-1,5.2,0,7.2l7.1,14.6
			c1,2,0.2,4.4-1.8,5.5l-14.3,7.6c-1.9,1-3.8,3.6-4.2,5.8l-2.8,16c-0.4,2.2-2.5,3.7-4.7,3.4l-16-2.3c-2.2-0.3-5.3,0.7-6.8,2.2
			L71.8,140c-1.6,1.5-4.2,1.5-5.7,0l-11.6-11.3c-1.6-1.5-4.7-2.5-6.8-2.2l-16,2.3c-2.2,0.3-4.3-1.2-4.7-3.4l-2.8-16
			c-0.4-2.2-2.3-4.8-4.2-5.8L5.5,96c-1.9-1-2.7-3.5-1.8-5.5L10.9,76c1-2,1-5.2,0-7.2L3.8,54.2c-1-2-0.2-4.4,1.8-5.5l14.3-7.6
			c1.9-1,3.8-3.6,4.2-5.8l2.8-16c0.4-2.2,2.5-3.7,4.7-3.4l16,2.3c2.2,0.3,5.3-0.7,6.8-2.2L66,4.8z"/>
	</g>
	<g id="XMLID_17_">
		<path id="XMLID_19_" class="st2" d="M64,2.8c1.6-1.5,4.2-1.5,5.7,0L81.4,14c1.6,1.5,4.7,2.5,6.8,2.2l16-2.3
			c2.2-0.3,4.3,1.2,4.7,3.4l2.8,16c0.4,2.2,2.3,4.8,4.2,5.8l14.3,7.6c1.9,1,2.7,3.5,1.8,5.5L125,66.8c-1,2-1,5.2,0,7.2l7.1,14.6
			c1,2,0.2,4.4-1.8,5.5l-14.3,7.6c-1.9,1-3.8,3.6-4.2,5.8l-2.8,16c-0.4,2.2-2.5,3.7-4.7,3.4l-16-2.3c-2.2-0.3-5.3,0.7-6.8,2.2
			L69.8,138c-1.6,1.5-4.2,1.5-5.7,0l-11.6-11.3c-1.6-1.5-4.7-2.5-6.8-2.2l-16,2.3c-2.2,0.3-4.3-1.2-4.7-3.4l-2.8-16
			c-0.4-2.2-2.3-4.8-4.2-5.8L3.5,94c-1.9-1-2.7-3.5-1.8-5.5L8.9,74c1-2,1-5.2,0-7.2L1.8,52.2c-1-2-0.2-4.4,1.8-5.5l14.3-7.6
			c1.9-1,3.8-3.6,4.2-5.8l2.8-16c0.4-2.2,2.5-3.7,4.7-3.4l16,2.3c2.2,0.3,5.3-0.7,6.8-2.2L64,2.8z"/>
	</g>
</g>
<g id="XMLID_157_">
	<path id="XMLID_987_" class="st3" d="M124.8,67.1L124.8,67.1L90.3,32.6L49.1,81.2v27.1l25.2,25.2l6.9-6.7c1.9-1.9,4.6-2.7,7.3-2.4
		l15.9,2.2c2.2,0.3,4.2-1.2,4.6-3.3l2.7-15.6c0.5-2.8,2.2-5.2,4.7-6.5l14-7.5c1.9-1,2.6-3.3,1.7-5.2l-7.4-15.1
		C123.8,71.6,123.8,69.2,124.8,67.1z"/>
</g>
<path id="XMLID_155_" class="st4" d="M100.8,64.6c0,26.2-15,52.5-33.5,52.5S33.7,90.8,33.7,64.6s15-39.9,33.5-39.9
	S100.8,38.4,100.8,64.6z"/>
<path id="XMLID_136_" class="st4" d="M107.5,69.6c0,5.3-3,10.5-6.7,10.5c-3.7,0-6.7-5.3-6.7-10.5s3-8,6.7-8
	C104.5,61.6,107.5,64.3,107.5,69.6z"/>
<path id="XMLID_135_" class="st4" d="M40.4,69.6c0,5.3-3,10.5-6.7,10.5S27,74.9,27,69.6s3-8,6.7-8S40.4,64.3,40.4,69.6z"/>
<circle id="XMLID_134_" class="st5" cx="54.6" cy="60.9" r="8.1"/>
<circle id="XMLID_132_" class="st5" cx="80.2" cy="60.9" r="8.1"/>
<path id="XMLID_128_" class="st5" d="M62.7,60.9c0,0,2-1.2,4.7-1.2c2.8,0,4.7,1.2,4.7,1.2"/>
<line id="XMLID_131_" class="st5" x1="33.9" y1="61.1" x2="46.5" y2="60.9"/>
<line id="XMLID_130_" class="st5" x1="88.3" y1="60.9" x2="100.5" y2="61.1"/>
<path id="XMLID_124_" class="st6" d="M67.2,39.5c0,0-6.2-2.2-11.1-4.8c-3.3-1.8-8.7-2.2-10.7-0.7c-4.9,3.6-6.8,9.9-8.4,14.7
	c-1.4,4.3-0.4,13.1,0.1,16.9c0.1,0.9-0.7,1.6-1.5,1.3l-0.4-0.1c-0.8-0.2-1.4-0.9-1.4-1.8c-0.2-2.7-0.5-8.6-0.1-11.1
	c0.5-3.3,1.9-8.6,3.5-11.7c1.6-3.1,5.3-8.4,8.2-10.8c2.8-2.4,5.6-4,9.5-5.8s12-2.2,12-2.2h0.6c0,0,8.1,0.3,12,2.2
	c3.9,1.8,6.7,3.4,9.5,5.8s6.6,7.7,8.2,10.8c1.6,3.1,3,8.3,3.5,11.7c0.4,2.5,0,8.7-0.2,11.4c-0.1,0.8-0.6,1.5-1.5,1.8l-0.2,0.1
	c-0.8,0.2-1.6-0.5-1.5-1.3c0.5-3.8,1.5-12.8,0.1-17.2C95.9,43.8,94,37.6,89.1,34c-2-1.5-7.4-1.1-10.7,0.7
	C73.5,37.4,67.2,39.5,67.2,39.5L67.2,39.5z"/>
<path id="XMLID_123_" class="st2" d="M66.9,105c7.9,0,14.3-8.3,14.3-18.6H52.6C52.6,96.6,59,105,66.9,105z"/>
<g id="XMLID_61_">
	<path id="XMLID_175_" class="st7" d="M66.9,105c7.9,0,14.3-8.3,14.3-18.6H52.6C52.6,96.6,59,105,66.9,105z"/>
</g>
</svg>
