<?xml version="1.0" encoding="utf-8"?>
<!-- Generator: Adobe Illustrator 19.0.0, SVG Export Plug-In . SVG Version: 6.00 Build 0)  -->
<svg version="1.1" id="Layer_1" xmlns="http://www.w3.org/2000/svg" xmlns:xlink="http://www.w3.org/1999/xlink" x="0px" y="0px"
	 viewBox="-238 326.8 134.7 141.2" style="enable-background:new -238 326.8 134.7 141.2;" xml:space="preserve">
<style type="text/css">
	.st0{opacity:0.2;}
	.st1{fill:#1D1D1B;}
	.st2{fill:#E9504B;}
	.st3{opacity:0.1;fill:#1D1D1B;enable-background:new    ;}
	.st4{fill:#DFC18F;}
	.st5{fill:none;stroke:#4B4949;stroke-width:2;stroke-miterlimit:10;}
	.st6{fill:#683D17;}
	.st7{opacity:0.2;fill:#1D1D1B;enable-background:new    ;}
</style>
<g id="XMLID_163_">
	<g id="XMLID_20_" class="st0">
		<path id="XMLID_22_" class="st1" d="M-172,331.6c1.6-1.5,4.2-1.5,5.7,0l11.7,11.2c1.6,1.5,4.7,2.5,6.8,2.2l16-2.3
			c2.2-0.3,4.3,1.2,4.7,3.4l2.8,16c0.4,2.2,2.3,4.8,4.2,5.8l14.3,7.6c1.9,1,2.7,3.5,1.8,5.5l-7,14.6c-1,2-1,5.2,0,7.2l7.1,14.6
			c1,2,0.2,4.4-1.8,5.5l-14.3,7.6c-1.9,1-3.8,3.6-4.2,5.8l-2.8,16c-0.4,2.2-2.5,3.7-4.7,3.4l-16-2.3c-2.2-0.3-5.3,0.7-6.8,2.2
			l-11.7,11.2c-1.6,1.5-4.2,1.5-5.7,0l-11.6-11.3c-1.6-1.5-4.7-2.5-6.8-2.2l-16,2.3c-2.2,0.3-4.3-1.2-4.7-3.4l-2.8-16
			c-0.4-2.2-2.3-4.8-4.2-5.8l-14.5-7.6c-1.9-1-2.7-3.5-1.8-5.5l7.2-14.5c1-2,1-5.2,0-7.2l-7.1-14.6c-1-2-0.2-4.4,1.8-5.5l14.3-7.6
			c1.9-1,3.8-3.6,4.2-5.8l2.8-16c0.4-2.2,2.5-3.7,4.7-3.4l16,2.3c2.2,0.3,5.3-0.7,6.8-2.2L-172,331.6z"/>
	</g>
	<g id="XMLID_17_">
		<path id="XMLID_19_" class="st2" d="M-174,329.6c1.6-1.5,4.2-1.5,5.7,0l11.7,11.2c1.6,1.5,4.7,2.5,6.8,2.2l16-2.3
			c2.2-0.3,4.3,1.2,4.7,3.4l2.8,16c0.4,2.2,2.3,4.8,4.2,5.8l14.3,7.6c1.9,1,2.7,3.5,1.8,5.5l-7,14.6c-1,2-1,5.2,0,7.2l7.1,14.6
			c1,2,0.2,4.4-1.8,5.5l-14.3,7.6c-1.9,1-3.8,3.6-4.2,5.8l-2.8,16c-0.4,2.2-2.5,3.7-4.7,3.4l-16-2.3c-2.2-0.3-5.3,0.7-6.8,2.2
			l-11.7,11.2c-1.6,1.5-4.2,1.5-5.7,0l-11.6-11.3c-1.6-1.5-4.7-2.5-6.8-2.2l-16,2.3c-2.2,0.3-4.3-1.2-4.7-3.4l-2.8-16
			c-0.4-2.2-2.3-4.8-4.2-5.8l-14.5-7.6c-1.9-1-2.7-3.5-1.8-5.5l7.2-14.5c1-2,1-5.2,0-7.2l-7.1-14.6c-1-2-0.2-4.4,1.8-5.5l14.3-7.6
			c1.9-1,3.8-3.6,4.2-5.8l2.8-16c0.4-2.2,2.5-3.7,4.7-3.4l16,2.3c2.2,0.3,5.3-0.7,6.8-2.2L-174,329.6z"/>
	</g>
</g>
<g id="XMLID_157_">
	<path id="XMLID_987_" class="st3" d="M-113.2,393.9L-113.2,393.9l-34.5-34.5l-41.2,48.6v27.1l25.2,25.2l6.9-6.7
		c1.9-1.9,4.6-2.7,7.3-2.4l15.9,2.2c2.2,0.3,4.2-1.2,4.6-3.3l2.7-15.6c0.5-2.8,2.2-5.2,4.7-6.5l14-7.5c1.9-1,2.6-3.3,1.7-5.2
		l-7.4-15.1C-114.2,398.4-114.2,396-113.2,393.9z"/>
</g>
<path id="XMLID_155_" class="st4" d="M-137.2,391.4c0,26.2-15,52.5-33.5,52.5s-33.6-26.3-33.6-52.5c0-26.2,15-39.9,33.5-39.9
	S-137.2,365.2-137.2,391.4z"/>
<path id="XMLID_136_" class="st4" d="M-130.5,396.4c0,5.3-3,10.5-6.7,10.5s-6.7-5.3-6.7-10.5c0-5.2,3-8,6.7-8
	S-130.5,391.1-130.5,396.4z"/>
<path id="XMLID_135_" class="st4" d="M-197.6,396.4c0,5.3-3,10.5-6.7,10.5s-6.7-5.2-6.7-10.5c0-5.3,3-8,6.7-8
	S-197.6,391.1-197.6,396.4z"/>
<circle id="XMLID_134_" class="st5" cx="-183.4" cy="387.7" r="8.1"/>
<circle id="XMLID_132_" class="st5" cx="-157.8" cy="387.7" r="8.1"/>
<path id="XMLID_128_" class="st5" d="M-175.3,387.7c0,0,2-1.2,4.7-1.2c2.8,0,4.7,1.2,4.7,1.2"/>
<line id="XMLID_131_" class="st5" x1="-204.1" y1="387.9" x2="-191.5" y2="387.7"/>
<line id="XMLID_130_" class="st5" x1="-149.7" y1="387.7" x2="-137.5" y2="387.9"/>
<path id="XMLID_124_" class="st6" d="M-170.8,366.3c0,0-6.2-2.2-11.1-4.8c-3.3-1.8-8.7-2.2-10.7-0.7c-4.9,3.6-6.8,9.9-8.4,14.7
	c-1.4,4.3-0.4,13.1,0.1,16.9c0.1,0.9-0.7,1.6-1.5,1.3l-0.4-0.1c-0.8-0.2-1.4-0.9-1.4-1.8c-0.2-2.7-0.5-8.6-0.1-11.1
	c0.5-3.3,1.9-8.6,3.5-11.7c1.6-3.1,5.3-8.4,8.2-10.8c2.8-2.4,5.6-4,9.5-5.8c3.9-1.8,12-2.2,12-2.2h0.6c0,0,8.1,0.3,12,2.2
	c3.9,1.8,6.7,3.4,9.5,5.8c2.8,2.4,6.6,7.7,8.2,10.8c1.6,3.1,3,8.3,3.5,11.7c0.4,2.5,0,8.7-0.2,11.4c-0.1,0.8-0.6,1.5-1.5,1.8
	l-0.2,0.1c-0.8,0.2-1.6-0.5-1.5-1.3c0.5-3.8,1.5-12.8,0.1-17.2c-1.5-4.9-3.4-11.1-8.3-14.7c-2-1.5-7.4-1.1-10.7,0.7
	C-164.5,364.2-170.8,366.3-170.8,366.3L-170.8,366.3z"/>
<path id="XMLID_123_" class="st2" d="M-171.1,431.8c7.9,0,14.3-8.3,14.3-18.6h-28.6C-185.4,423.4-179,431.8-171.1,431.8z"/>
<g id="XMLID_61_">
	<path id="XMLID_175_" class="st7" d="M-171.1,431.8c7.9,0,14.3-8.3,14.3-18.6h-28.6C-185.4,423.4-179,431.8-171.1,431.8z"/>
</g>
</svg>
