<?xml version="1.0" encoding="utf-8"?>
<!-- Generator: Adobe Illustrator 19.0.0, SVG Export Plug-In . SVG Version: 6.00 Build 0)  -->
<svg version="1.1" id="Layer_1" xmlns="http://www.w3.org/2000/svg" xmlns:xlink="http://www.w3.org/1999/xlink" x="0px" y="0px"
	 viewBox="0 0 351.2 294.2" style="enable-background:new 0 0 351.2 294.2;" xml:space="preserve">
<style type="text/css">
	.st0{fill:#FFFFFF;}
	.st1{fill:#E84E4A;}
</style>
<g id="XMLID_11_">
	<polygon id="XMLID_65_" class="st0" points="49.5,158 172.9,137 301.3,158.1 175.6,200.7 	"/>
</g>
<path id="XMLID_22_" class="st1" d="M325,155.9l-152-25l-146.8,25l-1.6-0.5l4.6,51.6c0.5,5.9,4.1,11.1,9.4,13.8l125.2,61.8
	c7.5,3.7,16.2,3.7,23.7,0L312.2,221c5.6-2.8,9.3-8.2,9.9-14.5l4.5-51.1L325,155.9z M173,143.1l103.7,17.1l-101.1,34.2L74,159.9
	L173,143.1z"/>
<g id="XMLID_7_">
	<path id="XMLID_27_" class="st1" d="M136.5,170.6l22-48c4.6-10,14.7-16.5,25.7-16.5c3.2,0,6.2,0.5,9.2,1.6l27.7-60.4
		c-4-2.7-7-6.6-8.7-11.2c-2.2-5.9-1.9-12.3,0.7-18l4.4-9.7L271.1,33l-4.4,9.7c-3.8,8.3-12.2,13.7-21.4,13.7c0,0,0,0,0,0
		c-2,0-4.1-0.3-6-0.8L211.6,116c12.4,7.2,17.6,22.9,11.5,36.2l-8.4,18.4H136.5z"/>
	<path id="XMLID_24_" class="st1" d="M217.7,9l52.7,24.2l-4.2,9.2c-3.9,8.4-12.2,13.4-20.9,13.4c-3.2,0-6.5-0.7-9.6-2.1l3.2,1.5
		L211,116.1l-2-0.9c13.9,6.4,20,22.9,13.7,36.8l-8.3,18.1h-77l21.7-47.3c4.7-10.2,14.7-16.2,25.2-16.2c3.9,0,7.8,0.8,11.5,2.5
		l-2-0.9l27.9-60.9l3.2,1.5c-11.5-5.3-16.6-18.9-11.3-30.5L217.7,9 M217.2,7.7l-0.4,0.9l-4.2,9.2c-2.7,5.8-2.9,12.3-0.7,18.4
		c1.7,4.6,4.7,8.4,8.6,11.2L193.1,107c-2.9-1-5.9-1.4-8.9-1.4c-11.2,0-21.5,6.6-26.2,16.8l-21.7,47.3l-0.6,1.4h1.6h77h0.6l0.3-0.6
		l8.3-18.1c3.2-7,3.5-14.8,0.8-22c-2.3-6.2-6.5-11.3-12.1-14.6l27.3-59.6c1.9,0.5,3.8,0.7,5.7,0.7c9.4,0,17.9-5.5,21.8-14l4.2-9.2
		l0.4-0.9l-0.9-0.4L218.1,8.1L217.2,7.7L217.2,7.7z"/>
</g>
<path id="XMLID_6_" class="st0" d="M201.6,123.2c1.1,0,2.6,0.6,3.4,1.4c6.9,6.7,10.1,13.4,8,18.6l-14.1,35.4l-9-3.6l13.3-33.4
	c2-5,1.3-11.1-2.7-17.1C199.9,123.7,200.4,123.2,201.6,123.2L201.6,123.2z"/>
<path id="XMLID_8_" class="st0" d="M253.8,34.7l-2.1,4.6c-2.6,5.8-9.5,8.3-15.2,5.7l-5.5-2.5c-5.8-2.6-8.3-9.5-5.7-15.2l2.1-4.6
	L253.8,34.7z"/>
</svg>
