<?xml version="1.0" encoding="utf-8"?>
<!-- Generator: Adobe Illustrator 19.0.0, SVG Export Plug-In . SVG Version: 6.00 Build 0)  -->
<svg version="1.1" id="Layer_1" xmlns="http://www.w3.org/2000/svg" xmlns:xlink="http://www.w3.org/1999/xlink" x="0px" y="0px"
	 viewBox="0 0 365.1 365.6" style="enable-background:new 0 0 365.1 365.6;" xml:space="preserve">
<style type="text/css">
	.st0{fill:#E84E4A;}
</style>
<path id="XMLID_6_" class="st0" d="M349.6,184.6l-168-168c-9.8-9.8-23-15.3-36.8-15.5L53.6,0C23.7-0.4-0.6,24.1,0,54.1l2,93.1
	c0.3,13.6,5.8,26.6,15.5,36.3l166.6,166.6c20.7,20.7,54.2,20.7,74.9,0l90.6-90.6C370.3,238.8,370.3,205.3,349.6,184.6z M52.1,106.1
	c-14.8-14.8-14.8-38.7,0-53.5c14.8-14.8,38.7-14.8,53.5,0s14.8,38.7,0,53.5C90.8,120.9,66.9,120.9,52.1,106.1z"/>
</svg>
